<?xml version="1.0" encoding="utf-8"?>
<!-- Generator: Adobe Illustrator 19.1.0, SVG Export Plug-In . SVG Version: 6.00 Build 0)  -->
<!DOCTYPE svg PUBLIC "-//W3C//DTD SVG 1.1//EN" "http://www.w3.org/Graphics/SVG/1.1/DTD/svg11.dtd">
<svg version="1.1" id="Layer_1" xmlns="http://www.w3.org/2000/svg" xmlns:xlink="http://www.w3.org/1999/xlink" x="0px" y="0px"
	 viewBox="0 0 128 128" style="enable-background:new 0 0 128 128;" xml:space="preserve">
<style type="text/css">
	.st0{opacity:0.6;fill:#D1D1D1;}
	.st1{fill:#0085D3;}
	.st2{fill:#0098E7;}
	.st3{fill:#00A6F6;}
	.st4{fill:#F3F3F3;}
	.st5{fill:#FEFEFE;}
	.st6{fill:#616161;}
</style>
<polygon class="st0" points="11.8,96.5 11.8,34.4 65.4,3 119,34.6 119.1,95.9 63.5,127.3 "/>
<g>
	<path class="st1" d="M115.8,92.8c-1,0.7-2,1.2-3.1,1.8c-16.4,9.5-32.9,19-49.3,28.5c-0.2,0.1-0.4,0.2-0.7,0
		C45.3,113.1,28,103.1,10.6,93c-0.1-0.1-0.2-0.1-0.3-0.2c0-0.3,0.2-0.3,0.4-0.4c2.4-1.4,4.8-2.8,7.3-4.2c0.4-0.2,0.7-0.5,1.1-0.5
		c0.8,0.3,1.5,0.8,2.2,1.2c5.2,3,10.4,6,15.6,9c3.6,2.1,7.2,4.1,10.7,6.2c3.8,2.2,7.7,4.4,11.5,6.6c1.2,0.7,2.4,1.3,3.5,2
		c0.3,0.2,0.5,0.2,0.7,0c3.2-1.9,6.4-3.7,9.6-5.6c4.3-2.5,8.5-4.9,12.8-7.4c3.3-1.9,6.7-3.9,10-5.8c3.6-2.1,7.2-4.1,10.7-6.2
		c0.1-0.1,0.2-0.1,0.3-0.1c0.6,0.2,1.1,0.5,1.6,0.8c2.3,1.3,4.6,2.6,6.9,4C115.5,92.5,115.8,92.6,115.8,92.8z"/>
	<path class="st2" d="M115.8,92.8c-0.7-0.5-1.5-0.9-2.2-1.3c-1.8-1.1-3.7-2.1-5.5-3.2c-0.4-0.2-0.8-0.4-1.1-0.6
		c-0.1-0.2-0.1-0.3-0.1-0.5c0-16.4,0-32.8,0-49.2c0-0.3,0-0.7,0-1c-0.1-0.3-0.3-0.4-0.5-0.5c-5.7-3.3-11.5-6.6-17.2-9.9
		c-5.3-3.1-10.6-6.1-15.9-9.2c-3.3-1.9-6.6-3.8-9.9-5.7c-0.2-0.1-0.4-0.2-0.5-0.5c-0.1-1.2,0-2.5,0-3.7c0-1.8,0-3.6,0-5.4
		c0-0.2-0.1-0.5,0.2-0.6c1.9,1.1,3.9,2.2,5.8,3.3c15.5,8.9,30.9,17.8,46.4,26.7c0.4,0.3,0.6,0.5,0.6,1c0,19.9,0,39.9,0,59.8
		C115.8,92.4,115.9,92.6,115.8,92.8z"/>
	<path class="st3" d="M63.1,1.4C63,1.5,63,1.7,63,1.9c0,3.1,0,6.3,0,9.4c-0.1,0.2-0.2,0.2-0.3,0.3c-6.9,4-13.8,8-20.7,12
		c-6.6,3.8-13.1,7.6-19.7,11.4c-0.9,0.5-1.8,1-2.7,1.5c-0.2,0.1-0.4,0.2-0.6,0.4c-0.1,0.3,0,0.6,0,0.9c0,16.3,0,32.6,0,48.9
		c0,0.4,0.1,0.7,0,1.1c-0.9,0.3-1.7,0.9-2.5,1.4c-1.9,1.1-3.8,2.2-5.7,3.3c-0.2,0.1-0.5,0.2-0.6,0.4c-0.2-0.2-0.1-0.4-0.1-0.6
		c0-18.9,0-37.8,0-56.7c0-1.1,0-2.2,0-3.2c0-0.3,0.1-0.5,0.4-0.7C21.4,25.3,32.2,19.1,43,12.9C49.5,9.1,56,5.3,62.6,1.6
		C62.7,1.5,62.9,1.2,63.1,1.4z"/>
	<path class="st4" d="M19.1,87.8c-0.2-0.2-0.2-0.4-0.2-0.6c0-6.1,0-12.2,0-18.3c0-10.5,0-21,0-31.5c0-0.2-0.1-0.5,0.1-0.6
		c0.8,0.4,1.6,0.9,2.4,1.3c3.9,2.3,7.9,4.5,11.8,6.8c3.6,2.1,7.2,4.2,10.9,6.3c4.2,2.4,8.4,4.8,12.5,7.3c1.9,1.1,3.9,2.2,5.8,3.4
		c0.4,0.2,0.7,0.2,1.1,0c4.9-2.8,9.8-5.7,14.6-8.5c4.2-2.5,8.5-4.9,12.7-7.4c4.3-2.5,8.7-5,13-7.5c0.8-0.5,1.6-0.9,2.4-1.4
		c0.2-0.1,0.3-0.3,0.6-0.2c0.1,0.1,0.1,0.3,0.1,0.5c0,16.6,0,33.3,0,49.9c0,0.2,0,0.3-0.1,0.5c-3.2,1.8-6.3,3.6-9.5,5.5
		c-11.4,6.6-22.7,13.1-34.1,19.7c-0.3,0.2-0.5,0.2-0.8,0c-14.3-8.3-28.6-16.5-43-24.8C19.4,87.9,19.3,87.8,19.1,87.8z"/>
	<path class="st5" d="M106.9,36.8c-1.2,0.7-2.4,1.4-3.6,2.1c-1.6,0.9-3.2,1.9-4.9,2.8c-1.8,1.1-3.7,2.1-5.5,3.2
		c-2,1.1-3.9,2.3-5.9,3.4c-1.8,1.1-3.7,2.1-5.5,3.2c-2,1.1-3.9,2.3-5.9,3.4C73.8,56,72,57,70.1,58.1c-1.6,0.9-3.2,1.8-4.8,2.8
		c-0.7,0.4-1.3,0.8-2,1.2c-0.3,0.2-0.5,0.2-0.8,0c-1.4-0.8-2.7-1.6-4.1-2.4c-1.8-1.1-3.7-2.1-5.5-3.2c-1.6-0.9-3.2-1.8-4.8-2.8
		c-1.8-1.1-3.7-2.1-5.5-3.2c-2-1.1-3.9-2.3-5.9-3.4c-1.8-1.1-3.7-2.1-5.5-3.2c-1.8-1-3.6-2.1-5.4-3.1c-1.8-1.1-3.7-2.1-5.5-3.2
		c-0.4-0.3-0.9-0.4-1.3-0.8c2-1.2,4-2.3,5.9-3.5c12.5-7.2,25-14.5,37.5-21.7c0.2-0.1,0.3-0.2,0.5-0.3c2.3,1.4,4.7,2.7,7,4.1
		c12.1,7,24.3,14,36.4,21C106.6,36.5,106.8,36.5,106.9,36.8z"/>
	<path class="st6" d="M45.6,48.3c0.4-0.2,0.7-0.4,1-0.6C58.6,40.9,70.5,34,82.4,27.1c0.4-0.2,0.6-0.2,1,0c0.7,0.4,1.4,0.8,2.1,1.3
		c-0.1,0.2-0.2,0.2-0.3,0.3C73,35.7,60.8,42.7,48.6,49.8c-0.2,0.1-0.4,0.2-0.6,0C47.3,49.3,46.5,48.8,45.6,48.3z"/>
	<path class="st6" d="M52.2,52.1c2-1.1,3.9-2.2,5.8-3.3c10.3-6,20.7-11.9,31-17.9c0.3-0.2,0.5-0.2,0.8,0c0.7,0.5,1.5,0.9,2.3,1.3
		c-1.4,0.8-2.7,1.5-4,2.3c-10.9,6.3-21.9,12.7-32.8,19c-0.3,0.2-0.5,0.2-0.8,0C53.8,53,53,52.6,52.2,52.1z"/>
	<path class="st6" d="M80.9,45.9c-2.4,1.4-4.7,2.7-7,4.1c-4.1,2.4-8.3,4.8-12.4,7.2c-0.3,0.2-0.5,0.2-0.7,0
		c-0.7-0.5-1.5-0.9-2.2-1.3c0-0.2,0.1-0.2,0.2-0.2c6.4-3.7,12.8-7.4,19.2-11.1c0.2-0.1,0.4-0.1,0.6,0C79.3,45,80.1,45.4,80.9,45.9z"
		/>
	<path class="st6" d="M52.7,31.9c-0.6,0.4-1.2,0.7-1.8,1c-5.2,3-10.4,6-15.6,9c-0.4,0.2-0.6,0.2-1,0c-0.7-0.5-1.4-0.9-2.1-1.3
		c0-0.2,0.2-0.2,0.3-0.3c5.7-3.3,11.4-6.5,17.1-9.8c0.3-0.2,0.5-0.1,0.7,0C51.2,31,51.9,31.4,52.7,31.9z"/>
	<path class="st6" d="M25.7,36.8c1.7-1,3.3-1.9,4.9-2.8c1.9-1.1,3.9-2.2,5.8-3.4c0.2-0.1,0.4-0.2,0.6,0c0.8,0.5,1.5,0.9,2.3,1.4
		c-0.1,0.1-0.2,0.2-0.3,0.2c-3.4,2-6.9,4-10.3,6.1c-0.2,0.1-0.4,0.2-0.7,0C27.3,37.7,26.5,37.3,25.7,36.8z"/>
</g>
</svg>
