<?xml version="1.0" encoding="utf-8"?>
<!-- Generator: Adobe Illustrator 19.1.0, SVG Export Plug-In . SVG Version: 6.00 Build 0)  -->
<!DOCTYPE svg PUBLIC "-//W3C//DTD SVG 1.1//EN" "http://www.w3.org/Graphics/SVG/1.1/DTD/svg11.dtd">
<svg version="1.1" xmlns="http://www.w3.org/2000/svg" xmlns:xlink="http://www.w3.org/1999/xlink" x="0px" y="0px"
	 viewBox="0 0 24 24" style="enable-background:new 0 0 24 24;" xml:space="preserve">
<style type="text/css">
	.st0{fill:#0085D3;}
	.st1{fill:#0098E7;}
	.st2{fill:#00A6F6;}
	.st3{fill:#F3F3F3;}
	.st4{fill:#FEFEFE;}
	.st5{fill:#616161;}
</style>
<g id="Layer_2">
</g>
<g id="Layer_1">
	<g>
		<path class="st0" d="M22.1,17.9c-0.2,0.1-0.4,0.2-0.6,0.3c-3.2,1.8-6.3,3.7-9.5,5.5c0,0-0.1,0-0.1,0c-3.3-1.9-6.7-3.9-10-5.8
			c0,0,0,0,0,0c0-0.1,0-0.1,0.1-0.1c0.5-0.3,0.9-0.5,1.4-0.8c0.1,0,0.1-0.1,0.2-0.1c0.2,0.1,0.3,0.1,0.4,0.2c1,0.6,2,1.2,3,1.7
			C7.6,19.2,8.3,19.6,9,20c0.7,0.4,1.5,0.9,2.2,1.3c0.2,0.1,0.5,0.3,0.7,0.4c0.1,0,0.1,0,0.1,0c0.6-0.4,1.2-0.7,1.9-1.1
			c0.8-0.5,1.6-0.9,2.5-1.4c0.6-0.4,1.3-0.7,1.9-1.1c0.7-0.4,1.4-0.8,2.1-1.2c0,0,0,0,0.1,0c0.1,0,0.2,0.1,0.3,0.2
			C21.2,17.3,21.6,17.5,22.1,17.9C22.1,17.8,22.1,17.8,22.1,17.9z"/>
		<path class="st1" d="M22.1,17.9c-0.1-0.1-0.3-0.2-0.4-0.3c-0.4-0.2-0.7-0.4-1.1-0.6c-0.1,0-0.1-0.1-0.2-0.1c0,0,0-0.1,0-0.1
			c0-3.2,0-6.3,0-9.5c0-0.1,0-0.1,0-0.2c0-0.1-0.1-0.1-0.1-0.1c-1.1-0.6-2.2-1.3-3.3-1.9c-1-0.6-2-1.2-3.1-1.8
			C13.3,3,12.7,2.6,12,2.3c0,0-0.1,0-0.1-0.1c0-0.2,0-0.5,0-0.7c0-0.3,0-0.7,0-1c0,0,0-0.1,0-0.1c0.4,0.2,0.7,0.4,1.1,0.6
			c3,1.7,5.9,3.4,8.9,5.1c0.1,0,0.1,0.1,0.1,0.2c0,3.8,0,7.7,0,11.5C22.1,17.8,22.2,17.8,22.1,17.9z"/>
		<path class="st2" d="M12,0.3C12,0.3,12,0.3,12,0.3c0,0.7,0,1.3,0,1.9c0,0,0,0-0.1,0.1c-1.3,0.8-2.7,1.5-4,2.3
			C6.7,5.3,5.4,6,4.1,6.7C4,6.8,3.8,6.9,3.6,7c0,0-0.1,0-0.1,0.1c0,0.1,0,0.1,0,0.2c0,3.1,0,6.3,0,9.4c0,0.1,0,0.1,0,0.2
			C3.4,17,3.2,17.1,3,17.2c-0.4,0.2-0.7,0.4-1.1,0.6c0,0-0.1,0-0.1,0.1c0,0,0-0.1,0-0.1c0-3.6,0-7.3,0-10.9c0-0.2,0-0.4,0-0.6
			c0-0.1,0-0.1,0.1-0.1C4,4.9,6,3.7,8.1,2.5c1.3-0.7,2.5-1.5,3.8-2.2C11.9,0.3,12,0.2,12,0.3z"/>
		<path class="st3" d="M3.5,16.9c0,0,0-0.1,0-0.1c0-1.2,0-2.3,0-3.5c0-2,0-4,0-6.1c0,0,0-0.1,0-0.1C3.7,7.1,3.8,7.2,4,7.3
			c0.8,0.4,1.5,0.9,2.3,1.3C6.9,9,7.6,9.5,8.3,9.9c0.8,0.5,1.6,0.9,2.4,1.4c0.4,0.2,0.7,0.4,1.1,0.7c0.1,0,0.1,0,0.2,0
			c0.9-0.5,1.9-1.1,2.8-1.6c0.8-0.5,1.6-0.9,2.4-1.4c0.8-0.5,1.7-1,2.5-1.5c0.2-0.1,0.3-0.2,0.5-0.3c0,0,0.1-0.1,0.1,0
			c0,0,0,0.1,0,0.1c0,3.2,0,6.4,0,9.6c0,0,0,0.1,0,0.1c-0.6,0.3-1.2,0.7-1.8,1c-2.2,1.3-4.4,2.5-6.6,3.8c-0.1,0-0.1,0-0.2,0
			C9.1,20.1,6.4,18.5,3.5,16.9C3.6,16.9,3.6,16.9,3.5,16.9z"/>
		<path class="st4" d="M20.4,7.1c-0.2,0.1-0.5,0.3-0.7,0.4c-0.3,0.2-0.6,0.4-0.9,0.5c-0.4,0.2-0.7,0.4-1.1,0.6
			c-0.4,0.2-0.8,0.4-1.1,0.7c-0.4,0.2-0.7,0.4-1.1,0.6c-0.4,0.2-0.8,0.4-1.1,0.7c-0.4,0.2-0.7,0.4-1.1,0.6c-0.3,0.2-0.6,0.4-0.9,0.5
			c-0.1,0.1-0.3,0.1-0.4,0.2c-0.1,0-0.1,0-0.2,0c-0.3-0.2-0.5-0.3-0.8-0.5c-0.4-0.2-0.7-0.4-1.1-0.6c-0.3-0.2-0.6-0.4-0.9-0.5
			c-0.4-0.2-0.7-0.4-1.1-0.6C7.7,9.5,7.3,9.3,6.9,9.1C6.6,8.9,6.2,8.7,5.9,8.5c-0.3-0.2-0.7-0.4-1-0.6C4.5,7.6,4.1,7.4,3.8,7.2
			C3.7,7.2,3.6,7.2,3.5,7.1c0.4-0.2,0.8-0.4,1.1-0.7C7.1,5,9.5,3.6,11.9,2.2c0,0,0.1,0,0.1,0c0.4,0.3,0.9,0.5,1.3,0.8
			C15.7,4.3,18,5.7,20.4,7.1C20.4,7,20.4,7,20.4,7.1z"/>
		<path class="st5" d="M8.6,9.3c0.1,0,0.1-0.1,0.2-0.1c2.3-1.3,4.6-2.6,6.9-4c0.1,0,0.1,0,0.2,0c0.1,0.1,0.3,0.2,0.4,0.2
			c0,0,0,0-0.1,0c-2.3,1.4-4.7,2.7-7,4.1c0,0-0.1,0-0.1,0C8.9,9.5,8.8,9.4,8.6,9.3z"/>
		<path class="st5" d="M9.9,10c0.4-0.2,0.7-0.4,1.1-0.6c2-1.1,4-2.3,6-3.4c0.1,0,0.1,0,0.2,0c0.1,0.1,0.3,0.2,0.4,0.3
			c-0.3,0.2-0.5,0.3-0.8,0.4c-2.1,1.2-4.2,2.4-6.3,3.7c-0.1,0-0.1,0-0.2,0C10.2,10.2,10.1,10.1,9.9,10z"/>
		<path class="st5" d="M15.4,8.8c-0.5,0.3-0.9,0.5-1.4,0.8c-0.8,0.5-1.6,0.9-2.4,1.4c-0.1,0-0.1,0-0.1,0c-0.1-0.1-0.3-0.2-0.4-0.3
			c0,0,0,0,0,0c1.2-0.7,2.5-1.4,3.7-2.1c0,0,0.1,0,0.1,0C15.1,8.7,15.3,8.8,15.4,8.8z"/>
		<path class="st5" d="M10,6.2C9.9,6.2,9.8,6.3,9.7,6.4c-1,0.6-2,1.2-3,1.7c-0.1,0-0.1,0-0.2,0C6.3,8,6.2,7.9,6.1,7.8
			c0,0,0,0,0.1-0.1c1.1-0.6,2.2-1.3,3.3-1.9c0.1,0,0.1,0,0.1,0C9.7,6,9.8,6.1,10,6.2z"/>
		<path class="st5" d="M4.8,7.1c0.3-0.2,0.6-0.4,0.9-0.5c0.4-0.2,0.7-0.4,1.1-0.6c0,0,0.1,0,0.1,0C7.1,6,7.3,6.1,7.4,6.2
			c0,0,0,0-0.1,0C6.7,6.6,6,7,5.4,7.4c0,0-0.1,0-0.1,0C5.1,7.3,5,7.2,4.8,7.1z"/>
	</g>
</g>
</svg>
